<svg width="846" height="124" viewBox="0 0 846 124" fill="none" xmlns="http://www.w3.org/2000/svg">
<path d="M41.7542 15.8909H33.5568C33.323 14.5353 32.892 13.3345 32.2636 12.2884C31.6353 11.2275 30.8536 10.3287 29.9184 9.59199C28.9832 8.85528 27.9165 8.30274 26.7183 7.93439C25.5347 7.5513 24.2562 7.35975 22.8826 7.35975C20.4424 7.35975 18.2798 7.97859 16.3948 9.21626C14.5099 10.4392 13.034 12.2368 11.9674 14.609C10.9007 16.9665 10.3673 19.847 10.3673 23.2506C10.3673 26.7132 10.9007 29.6305 11.9674 32.0028C13.0487 34.3602 14.5245 36.1431 16.3948 37.3513C18.2798 38.5448 20.4351 39.1415 22.8607 39.1415C24.205 39.1415 25.4617 38.9647 26.6307 38.6111C27.8142 38.2427 28.8736 37.7049 29.8088 36.9977C30.7586 36.2904 31.555 35.4211 32.1979 34.3897C32.8554 33.3583 33.3084 32.1796 33.5568 30.8535L41.7542 30.8977C41.4474 33.0489 40.7825 35.0675 39.7597 36.9535C38.7514 38.8394 37.429 40.5044 35.7925 41.9484C34.1559 43.3776 32.2417 44.4974 30.0499 45.3078C27.8581 46.1034 25.4251 46.5013 22.7511 46.5013C18.8058 46.5013 15.2843 45.5804 12.1865 43.7386C9.08876 41.8968 6.64853 39.2373 4.86585 35.76C3.08316 32.2827 2.19182 28.1129 2.19182 23.2506C2.19182 18.3736 3.09047 14.2038 4.88777 10.7413C6.68506 7.26398 9.1326 4.60445 12.2304 2.76267C15.3282 0.920889 18.8351 0 22.7511 0C25.2498 0 27.5731 0.353621 29.7211 1.06086C31.8691 1.76811 33.7833 2.80687 35.4637 4.17716C37.1441 5.53271 38.5249 7.19767 39.6062 9.17206C40.7022 11.1317 41.4182 13.3713 41.7542 15.8909Z" fill="#242424"/>
<path d="M63.5355 46.5455C60.2477 46.5455 57.3984 45.8161 54.9874 44.3574C52.5764 42.8987 50.706 40.858 49.3763 38.2353C48.0612 35.6127 47.4037 32.5479 47.4037 29.0412C47.4037 25.5344 48.0612 22.4623 49.3763 19.8249C50.706 17.1875 52.5764 15.1394 54.9874 13.6807C57.3984 12.2221 60.2477 11.4927 63.5355 11.4927C66.8232 11.4927 69.6726 12.2221 72.0836 13.6807C74.4946 15.1394 76.3576 17.1875 77.6727 19.8249C79.0024 22.4623 79.6673 25.5344 79.6673 29.0412C79.6673 32.5479 79.0024 35.6127 77.6727 38.2353C76.3576 40.858 74.4946 42.8987 72.0836 44.3574C69.6726 45.8161 66.8232 46.5455 63.5355 46.5455ZM63.5793 40.1361C65.362 40.1361 66.8524 39.6425 68.0506 38.6553C69.2488 37.6533 70.1402 36.3125 70.7247 34.6328C71.3238 32.9531 71.6233 31.0819 71.6233 29.0191C71.6233 26.9415 71.3238 25.0629 70.7247 23.3832C70.1402 21.6888 69.2488 20.3406 68.0506 19.3387C66.8524 18.3368 65.362 17.8358 63.5793 17.8358C61.7528 17.8358 60.2331 18.3368 59.0203 19.3387C57.8221 20.3406 56.9235 21.6888 56.3244 23.3832C55.7399 25.0629 55.4477 26.9415 55.4477 29.0191C55.4477 31.0819 55.7399 32.9531 56.3244 34.6328C56.9235 36.3125 57.8221 37.6533 59.0203 38.6553C60.2331 39.6425 61.7528 40.1361 63.5793 40.1361Z" fill="#242424"/>
<path d="M84.5386 36.5777H92.4073C92.4803 37.8449 93.0429 38.8247 94.095 39.5172C95.147 40.2097 96.5133 40.556 98.1937 40.556C99.9033 40.556 101.343 40.1803 102.512 39.4288C103.695 38.6626 104.287 37.506 104.287 35.9589C104.287 35.0454 104.06 34.2424 103.607 33.5499C103.155 32.8426 102.519 32.2974 101.701 31.9144C100.882 31.5313 99.9179 31.3397 98.8074 31.3397H93.6566V25.6597H98.8074C100.459 25.6597 101.708 25.2766 102.555 24.5104C103.418 23.7442 103.849 22.7791 103.849 21.6151C103.849 20.3627 103.396 19.3461 102.49 18.5651C101.598 17.7842 100.364 17.3938 98.7855 17.3938C97.2074 17.3938 95.8923 17.7548 94.8402 18.4767C93.8027 19.1987 93.2621 20.127 93.2182 21.2615H85.3934C85.4227 19.2871 86.0071 17.5706 87.1469 16.1119C88.3013 14.6532 89.8501 13.5187 91.7936 12.7083C93.7516 11.8979 95.958 11.4927 98.4129 11.4927C101.043 11.4927 103.315 11.8905 105.229 12.6862C107.144 13.4818 108.619 14.5943 109.657 16.0235C110.694 17.438 111.213 19.1029 111.213 21.0184C111.213 22.8602 110.643 24.3852 109.503 25.5934C108.364 26.7868 106.829 27.6414 104.901 28.1571V28.5107C106.23 28.5844 107.429 28.9675 108.495 29.66C109.562 30.3378 110.409 31.2587 111.038 32.4227C111.666 33.5867 111.98 34.9349 111.98 36.4672C111.98 38.5448 111.388 40.3423 110.205 41.86C109.021 43.3629 107.392 44.5195 105.317 45.3299C103.257 46.1403 100.897 46.5455 98.2375 46.5455C95.6512 46.5455 93.3351 46.155 91.2894 45.3741C89.2584 44.5784 87.6437 43.4365 86.4455 41.9484C85.2473 40.4602 84.6117 38.67 84.5386 36.5777Z" fill="#242424"/>
<path d="M115.246 55.7396V39.2962H117.92C118.636 38.7363 119.235 37.9775 119.717 37.0198C120.2 36.0473 120.594 34.9054 120.901 33.5941C121.222 32.268 121.485 30.7872 121.69 29.1517C121.895 27.5015 122.077 25.726 122.238 23.8253L123.202 11.9347H147.532V39.2962H152.748V55.7396H145.077V45.8824H123.049V55.7396H115.246ZM126.074 39.2962H139.948V18.3883H130.085L129.559 23.8253C129.266 27.4204 128.879 30.4999 128.397 33.0636C127.915 35.6274 127.14 37.7049 126.074 39.2962Z" fill="#242424"/>
<path d="M168.359 46.5676C166.226 46.5676 164.305 46.1845 162.595 45.4183C160.9 44.6374 159.556 43.4881 158.562 41.9705C157.583 40.4528 157.093 38.5816 157.093 36.3567C157.093 34.4413 157.444 32.8573 158.146 31.6049C158.847 30.3525 159.804 29.3506 161.017 28.5992C162.23 27.8477 163.596 27.2804 165.116 26.8973C166.65 26.4995 168.235 26.2122 169.872 26.0354C171.844 25.8291 173.444 25.6449 174.672 25.4829C175.899 25.306 176.791 25.0408 177.346 24.6872C177.916 24.3189 178.201 23.7516 178.201 22.9854V22.8528C178.201 21.1878 177.711 19.8986 176.732 18.9851C175.753 18.0715 174.343 17.6148 172.502 17.6148C170.559 17.6148 169.017 18.0421 167.877 18.8967C166.752 19.7512 165.992 20.7605 165.598 21.9245L158.189 20.8637C158.774 18.8009 159.738 17.077 161.083 15.692C162.427 14.2922 164.071 13.2461 166.014 12.5536C167.958 11.8463 170.106 11.4927 172.458 11.4927C174.08 11.4927 175.695 11.6842 177.302 12.0673C178.909 12.4504 180.378 13.084 181.708 13.9681C183.037 14.8374 184.104 16.0235 184.908 17.5264C185.726 19.0293 186.135 20.9079 186.135 23.1622V45.8824H178.508V41.219H178.245C177.762 42.162 177.083 43.0461 176.206 43.8712C175.344 44.6816 174.255 45.3372 172.94 45.8382C171.64 46.3244 170.113 46.5676 168.359 46.5676ZM170.42 40.6886C172.012 40.6886 173.393 40.3718 174.562 39.7382C175.731 39.0899 176.63 38.2353 177.258 37.1745C177.901 36.1136 178.223 34.957 178.223 33.7046V29.7042C177.974 29.9105 177.55 30.102 176.951 30.2789C176.367 30.4557 175.709 30.6104 174.979 30.743C174.248 30.8756 173.525 30.9935 172.809 31.0966C172.093 31.1997 171.472 31.2882 170.946 31.3618C169.762 31.5239 168.703 31.7891 167.768 32.1575C166.832 32.5258 166.095 33.0415 165.554 33.7046C165.013 34.3529 164.743 35.1927 164.743 36.2241C164.743 37.6975 165.276 38.81 166.343 39.5614C167.41 40.3129 168.769 40.6886 170.42 40.6886Z" fill="#242424"/>
<path d="M211.889 25.8365V32.4227H193.763V25.8365H211.889ZM200.053 11.9347V45.8824H192.097V11.9347H200.053ZM222.059 46.5455C218.815 46.5455 216.002 45.8014 213.621 44.3132C211.253 42.8251 209.42 40.7623 208.119 38.1248C206.819 35.4874 206.168 32.4374 206.168 28.9749C206.168 25.5123 206.819 22.4697 208.119 19.847C209.42 17.2243 211.253 15.1763 213.621 13.7028C216.002 12.2294 218.815 11.4927 222.059 11.4927C225.288 11.4927 228.087 12.2294 230.454 13.7028C232.836 15.1763 234.677 17.2243 235.977 19.847C237.292 22.4697 237.95 25.5123 237.95 28.9749C237.95 32.4374 237.292 35.4874 235.977 38.1248C234.677 40.7623 232.836 42.8251 230.454 44.3132C228.087 45.8014 225.288 46.5455 222.059 46.5455ZM222.059 39.915C223.973 39.915 225.537 39.4288 226.75 38.4564C227.962 37.4839 228.854 36.1726 229.424 34.5223C229.994 32.8721 230.278 31.0229 230.278 28.9749C230.278 26.9268 229.994 25.0777 229.424 23.4274C228.854 21.7772 227.962 20.4732 226.75 19.5155C225.537 18.543 223.973 18.0568 222.059 18.0568C220.13 18.0568 218.552 18.543 217.325 19.5155C216.112 20.4732 215.221 21.7772 214.651 23.4274C214.081 25.0777 213.796 26.9268 213.796 28.9749C213.796 31.0377 214.081 32.8942 214.651 34.5444C215.221 36.1947 216.112 37.506 217.325 38.4785C218.552 39.4362 220.13 39.915 222.059 39.915Z" fill="#242424"/>
<path d="M258.454 18.4988V11.9347H287.912V18.4988H277.019V45.8824H269.348V18.4988H258.454Z" fill="#242424"/>
<path d="M302.532 46.5676C300.398 46.5676 298.477 46.1845 296.767 45.4183C295.072 44.6374 293.728 43.4881 292.734 41.9705C291.755 40.4528 291.266 38.5816 291.266 36.3567C291.266 34.4413 291.617 32.8573 292.318 31.6049C293.019 30.3525 293.976 29.3506 295.189 28.5992C296.402 27.8477 297.768 27.2804 299.288 26.8973C300.822 26.4995 302.408 26.2122 304.044 26.0354C306.017 25.8291 307.617 25.6449 308.844 25.4829C310.072 25.306 310.963 25.0408 311.518 24.6872C312.088 24.3189 312.373 23.7516 312.373 22.9854V22.8528C312.373 21.1878 311.884 19.8986 310.905 18.9851C309.926 18.0715 308.516 17.6148 306.674 17.6148C304.731 17.6148 303.189 18.0421 302.05 18.8967C300.925 19.7512 300.165 20.7605 299.77 21.9245L292.362 20.8637C292.946 18.8009 293.911 17.077 295.255 15.692C296.599 14.2922 298.243 13.2461 300.187 12.5536C302.13 11.8463 304.278 11.4927 306.631 11.4927C308.253 11.4927 309.867 11.6842 311.475 12.0673C313.082 12.4504 314.55 13.084 315.88 13.9681C317.21 14.8374 318.276 16.0235 319.08 17.5264C319.898 19.0293 320.308 20.9079 320.308 23.1622V45.8824H312.68V41.219H312.417C311.935 42.162 311.255 43.0461 310.379 43.8712C309.516 44.6816 308.428 45.3372 307.113 45.8382C305.812 46.3244 304.285 46.5676 302.532 46.5676ZM304.592 40.6886C306.185 40.6886 307.566 40.3718 308.735 39.7382C309.904 39.0899 310.802 38.2353 311.431 37.1745C312.074 36.1136 312.395 34.957 312.395 33.7046V29.7042C312.147 29.9105 311.723 30.102 311.124 30.2789C310.539 30.4557 309.882 30.6104 309.151 30.743C308.421 30.8756 307.697 30.9935 306.981 31.0966C306.265 31.1997 305.644 31.2882 305.118 31.3618C303.935 31.5239 302.875 31.7891 301.94 32.1575C301.005 32.5258 300.267 33.0415 299.726 33.7046C299.186 34.3529 298.915 35.1927 298.915 36.2241C298.915 37.6975 299.449 38.81 300.515 39.5614C301.582 40.3129 302.941 40.6886 304.592 40.6886Z" fill="#242424"/>
<path d="M328.286 45.8824V11.9347H336.22V25.6376H339.113L349.24 11.9347H358.796L346.325 28.5992L358.927 45.8824H349.327L340.1 33.0857H336.22V45.8824H328.286Z" fill="#242424"/>
<path d="M361.585 18.4988V11.9347H391.043V18.4988H380.15V45.8824H372.478V18.4988H361.585Z" fill="#242424"/>
<path d="M405.011 35.0527L418.49 11.9347H426.644V45.8824H418.973V22.7423L405.537 45.8824H397.361V11.9347H405.011V35.0527Z" fill="#242424"/>
<path d="M462.913 11.9347V45.8824H455.286V11.9347H462.913ZM459.34 27.2731V33.8151C458.478 34.1982 457.499 34.5444 456.403 34.8538C455.322 35.1485 454.175 35.3843 452.962 35.5611C451.764 35.7379 450.566 35.8263 449.368 35.8263C444.867 35.8263 441.309 34.8096 438.693 32.7763C436.092 30.7283 434.792 27.5383 434.792 23.2064V11.8905H442.376V23.2064C442.376 24.6651 442.631 25.8365 443.143 26.7205C443.654 27.6046 444.429 28.2529 445.466 28.6655C446.504 29.0633 447.804 29.2622 449.368 29.2622C451.121 29.2622 452.787 29.0854 454.365 28.7318C455.943 28.3781 457.602 27.8919 459.34 27.2731Z" fill="#242424"/>
<path d="M494.021 25.5934V32.1575H476.091V25.5934H494.021ZM478.546 11.9347V45.8824H470.897V11.9347H478.546ZM499.215 11.9347V45.8824H491.588V11.9347H499.215Z" fill="#242424"/>
<path d="M512.613 22.9854H522.542C526.838 22.9854 530.162 24.0389 532.514 26.1459C534.867 28.2529 536.051 31.0156 536.065 34.4339C536.051 36.6588 535.51 38.6332 534.443 40.3571C533.391 42.081 531.857 43.4365 529.84 44.4237C527.839 45.3962 525.406 45.8824 522.542 45.8824H507.243V11.9347H514.892V39.3183H522.542C524.266 39.3183 525.683 38.8763 526.794 37.9922C527.904 37.0934 528.46 35.9442 528.46 34.5444C528.46 33.071 527.904 31.8702 526.794 30.9419C525.683 30.0136 524.266 29.5495 522.542 29.5495H512.613V22.9854ZM540.252 45.8824V11.9347H548.186V45.8824H540.252Z" fill="#242424"/>
<path d="M564.016 35.0527L577.496 11.9347H585.65V45.8824H577.978V22.7423L564.542 45.8824H556.367V11.9347H564.016V35.0527ZM575.326 0.265217H581.266C581.266 2.84371 580.338 4.93597 578.482 6.542C576.641 8.1333 574.143 8.92895 570.986 8.92895C567.859 8.92895 565.368 8.1333 563.512 6.542C561.671 4.93597 560.758 2.84371 560.773 0.265217H566.669C566.669 1.32608 566.99 2.27644 567.633 3.11629C568.29 3.94141 569.408 4.35397 570.986 4.35397C572.535 4.35397 573.639 3.94141 574.296 3.11629C574.968 2.29117 575.312 1.34082 575.326 0.265217Z" fill="#242424"/>
<path d="M609.108 45.8824V11.9347H617.042V25.6376H619.935L630.062 11.9347H639.618L627.146 28.5992L639.749 45.8824H630.149L620.922 33.0857H617.042V45.8824H609.108Z" fill="#242424"/>
<path d="M657.547 46.5455C654.259 46.5455 651.41 45.8161 648.999 44.3574C646.588 42.8987 644.718 40.858 643.388 38.2353C642.073 35.6127 641.415 32.5479 641.415 29.0412C641.415 25.5344 642.073 22.4623 643.388 19.8249C644.718 17.1875 646.588 15.1394 648.999 13.6807C651.41 12.2221 654.259 11.4927 657.547 11.4927C660.835 11.4927 663.684 12.2221 666.095 13.6807C668.506 15.1394 670.369 17.1875 671.684 19.8249C673.014 22.4623 673.679 25.5344 673.679 29.0412C673.679 32.5479 673.014 35.6127 671.684 38.2353C670.369 40.858 668.506 42.8987 666.095 44.3574C663.684 45.8161 660.835 46.5455 657.547 46.5455ZM657.591 40.1361C659.374 40.1361 660.864 39.6425 662.062 38.6553C663.26 37.6533 664.152 36.3125 664.736 34.6328C665.335 32.9531 665.635 31.0819 665.635 29.0191C665.635 26.9415 665.335 25.0629 664.736 23.3832C664.152 21.6888 663.26 20.3406 662.062 19.3387C660.864 18.3368 659.374 17.8358 657.591 17.8358C655.764 17.8358 654.245 18.3368 653.032 19.3387C651.834 20.3406 650.935 21.6888 650.336 23.3832C649.751 25.0629 649.459 26.9415 649.459 29.0191C649.459 31.0819 649.751 32.9531 650.336 34.6328C650.935 36.3125 651.834 37.6533 653.032 38.6553C654.245 39.6425 655.764 40.1361 657.591 40.1361Z" fill="#242424"/>
<path d="M703.537 25.5934V32.1575H685.608V25.5934H703.537ZM688.063 11.9347V45.8824H680.413V11.9347H688.063ZM708.732 11.9347V45.8824H701.104V11.9347H708.732Z" fill="#242424"/>
<path d="M712.989 18.4988V11.9347H742.447V18.4988H731.554V45.8824H723.883V18.4988H712.989Z" fill="#242424"/>
<path d="M762.283 46.5455C758.908 46.5455 755.993 45.8382 753.538 44.4237C751.098 42.9945 749.22 40.9759 747.905 38.368C746.59 35.7453 745.932 32.6584 745.932 29.1075C745.932 25.6155 746.59 22.5507 747.905 19.9133C749.235 17.2612 751.09 15.1984 753.472 13.7249C755.854 12.2368 758.652 11.4927 761.867 11.4927C763.942 11.4927 765.9 11.8316 767.741 12.5094C769.597 13.1724 771.233 14.2038 772.651 15.6036C774.083 17.0033 775.208 18.7862 776.026 20.9521C776.844 23.1033 777.253 25.667 777.253 28.6434V31.0966H749.658V25.7039H769.648C769.633 24.1715 769.304 22.8086 768.661 21.6151C768.019 20.4069 767.12 19.4566 765.966 18.764C764.826 18.0715 763.496 17.7253 761.976 17.7253C760.354 17.7253 758.93 18.1231 757.702 18.9188C756.475 19.6997 755.518 20.7311 754.831 22.0129C754.159 23.2801 753.816 24.6725 753.801 26.1901V30.8977C753.801 32.8721 754.159 34.5665 754.875 35.981C755.591 37.3808 756.592 38.4564 757.878 39.2078C759.164 39.9445 760.669 40.3129 762.393 40.3129C763.547 40.3129 764.592 40.1508 765.527 39.8266C766.462 39.4878 767.273 38.9942 767.96 38.3459C768.647 37.6975 769.166 36.8945 769.516 35.9368L776.925 36.7767C776.457 38.751 775.566 40.4749 774.251 41.9484C772.95 43.4071 771.284 44.5416 769.253 45.352C767.222 46.1476 764.899 46.5455 762.283 46.5455Z" fill="#242424"/>
<path d="M807.09 25.5934V32.1575H789.161V25.5934H807.09ZM791.615 11.9347V45.8824H783.966V11.9347H791.615ZM812.284 11.9347V45.8824H804.657V11.9347H812.284Z" fill="#242424"/>
<path d="M816.542 18.4988V11.9347H846V18.4988H835.107V45.8824H827.435V18.4988H816.542Z" fill="#242424"/>
<path d="M0 124V107.557H2.67402C3.39002 106.997 3.98912 106.238 4.47132 105.28C4.95352 104.308 5.34805 103.166 5.6549 101.854C5.97637 100.528 6.23939 99.0476 6.44396 97.4121C6.64853 95.7618 6.83118 93.9864 6.99192 92.0856L7.95632 80.1951H32.2856V107.557H37.5021V124H29.8307V114.143H7.80289V124H0ZM10.8276 107.557H24.7018V86.6487H14.8386L14.3126 92.0856C14.0204 95.6808 13.6331 98.7603 13.1509 101.324C12.6687 103.888 11.8943 105.965 10.8276 107.557Z" fill="#242424"/>
<path d="M41.1022 114.143L41.0583 107.557H42.22C43.0967 107.557 43.8346 107.358 44.4337 106.96C45.0328 106.562 45.5296 105.899 45.9242 104.971C46.3187 104.028 46.6256 102.761 46.8447 101.169C47.0639 99.578 47.2174 97.5963 47.305 95.224L47.8968 80.1951H72.4452V114.143H64.7739V86.7592H55.1079L54.5819 97.6994C54.4504 100.528 54.1362 102.982 53.6394 105.059C53.1572 107.122 52.4704 108.824 51.5791 110.165C50.7024 111.505 49.5991 112.507 48.2694 113.17C46.9397 113.819 45.3689 114.143 43.557 114.143H41.1022Z" fill="#242424"/>
<path d="M100.336 114.143V86.6929H93.147C91.3205 86.6929 89.9177 87.1202 88.9387 87.9748C87.9597 88.8294 87.4775 89.8903 87.4921 91.1574C87.4775 92.4245 87.9378 93.4707 88.873 94.2958C89.8081 95.1209 91.1451 95.5335 92.884 95.5335H102.835V101.368H92.884C90.1954 101.368 87.872 100.941 85.914 100.086C83.956 99.2318 82.4509 98.0235 81.3988 96.4617C80.3468 94.8999 79.8207 93.0728 79.8207 90.9806C79.8207 88.7999 80.3541 86.9066 81.4208 85.3005C82.5021 83.6798 84.0363 82.4274 86.0236 81.5433C88.0255 80.6445 90.3999 80.1951 93.147 80.1951H107.766V114.143H100.336ZM78.5933 114.143L87.9962 96.7269H95.821L86.3962 114.143H78.5933Z" fill="#242424"/>
<path d="M158.047 67.6415L160.809 72.8133C159.83 73.6679 158.734 74.2867 157.521 74.6698C156.308 75.0529 154.883 75.3034 153.247 75.4212C151.625 75.5244 149.696 75.598 147.46 75.6422C144.947 75.7012 142.894 76.18 141.301 77.0788C139.709 77.9776 138.489 79.3405 137.641 81.1676C136.794 82.9799 136.238 85.2932 135.975 88.1074H136.348C137.4 86.0299 138.876 84.4459 140.775 83.3556C142.675 82.2653 144.903 81.7201 147.46 81.7201C150.251 81.7201 152.713 82.3537 154.847 83.6208C156.995 84.8732 158.668 86.6929 159.866 89.0799C161.079 91.4668 161.685 94.3547 161.685 97.7436C161.685 101.236 161.035 104.263 159.735 106.827C158.434 109.376 156.586 111.343 154.189 112.728C151.808 114.113 148.98 114.806 145.707 114.806C142.448 114.806 139.614 114.091 137.203 112.662C134.806 111.218 132.951 109.089 131.635 106.275C130.335 103.446 129.685 99.9611 129.685 95.8208V92.7708C129.685 84.7848 131.161 78.8248 134.112 74.8908C137.064 70.9568 141.44 68.9529 147.241 68.8792C148.965 68.8498 150.507 68.8424 151.866 68.8571C153.24 68.8719 154.438 68.8056 155.461 68.6582C156.483 68.5109 157.346 68.172 158.047 67.6415ZM145.751 108.396C147.373 108.396 148.775 107.977 149.959 107.137C151.143 106.282 152.049 105.074 152.677 103.512C153.32 101.95 153.641 100.101 153.641 97.9646C153.641 95.8576 153.32 94.0674 152.677 92.594C152.034 91.1058 151.121 89.9713 149.937 89.1904C148.754 88.4095 147.343 88.019 145.707 88.019C144.48 88.019 143.376 88.24 142.397 88.682C141.418 89.1241 140.585 89.7724 139.899 90.627C139.212 91.4815 138.686 92.5203 138.32 93.7433C137.955 94.9662 137.758 96.3733 137.729 97.9646C137.729 101.162 138.445 103.704 139.877 105.59C141.309 107.461 143.267 108.396 145.751 108.396Z" fill="#242424"/>
<path d="M176.086 103.313L189.565 80.1951H197.719V114.143H190.048V91.0027L176.612 114.143H168.436V80.1951H176.086V103.313Z" fill="#242424"/>
<path d="M204.004 104.838H211.873C211.946 106.105 212.508 107.085 213.56 107.778C214.612 108.47 215.979 108.816 217.659 108.816C219.369 108.816 220.808 108.441 221.977 107.689C223.16 106.923 223.752 105.766 223.752 104.219C223.752 103.306 223.526 102.503 223.073 101.81C222.62 101.103 221.984 100.558 221.166 100.175C220.348 99.7917 219.383 99.6001 218.273 99.6001H213.122V93.9201H218.273C219.924 93.9201 221.173 93.537 222.021 92.7708C222.883 92.0046 223.314 91.0395 223.314 89.8755C223.314 88.6231 222.861 87.6064 221.955 86.8255C221.064 86.0446 219.829 85.6542 218.251 85.6542C216.673 85.6542 215.358 86.0151 214.306 86.7371C213.268 87.4591 212.727 88.3874 212.684 89.5219H204.859C204.888 87.5475 205.472 85.831 206.612 84.3723C207.767 82.9136 209.315 81.7791 211.259 80.9687C213.217 80.1583 215.423 79.7531 217.878 79.7531C220.508 79.7531 222.781 80.1509 224.695 80.9466C226.609 81.7422 228.085 82.8547 229.122 84.2839C230.16 85.6984 230.678 87.3633 230.678 89.2788C230.678 91.1206 230.109 92.6456 228.969 93.8538C227.829 95.0472 226.295 95.9018 224.366 96.4175V96.7711C225.696 96.8448 226.894 97.2279 227.961 97.9204C229.027 98.5982 229.875 99.5191 230.503 100.683C231.131 101.847 231.446 103.195 231.446 104.728C231.446 106.805 230.854 108.603 229.67 110.12C228.487 111.623 226.857 112.78 224.782 113.59C222.722 114.401 220.362 114.806 217.703 114.806C215.117 114.806 212.8 114.415 210.755 113.634C208.724 112.839 207.109 111.697 205.911 110.209C204.713 108.721 204.077 106.93 204.004 104.838Z" fill="#242424"/>
<path d="M260.816 93.8538V100.418H242.887V93.8538H260.816ZM245.342 80.1951V114.143H237.692V80.1951H245.342ZM266.011 80.1951V114.143H258.383V80.1951H266.011Z" fill="#242424"/>
<path d="M288.943 114.806C285.567 114.806 282.652 114.099 280.197 112.684C277.757 111.255 275.879 109.236 274.564 106.628C273.249 104.006 272.592 100.919 272.592 97.3679C272.592 93.8759 273.249 90.8111 274.564 88.1737C275.894 85.5216 277.75 83.4588 280.131 81.9853C282.513 80.4972 285.311 79.7531 288.526 79.7531C290.601 79.7531 292.559 80.092 294.4 80.7698C296.256 81.4328 297.893 82.4642 299.31 83.8639C300.742 85.2637 301.867 87.0465 302.685 89.2125C303.504 91.3637 303.913 93.9274 303.913 96.9037V99.357H276.318V93.9643H296.307C296.292 92.4319 295.964 91.069 295.321 89.8755C294.678 88.6673 293.779 87.7169 292.625 87.0244C291.485 86.3319 290.155 85.9857 288.636 85.9857C287.014 85.9857 285.589 86.3835 284.362 87.1792C283.134 87.9601 282.177 88.9915 281.49 90.2733C280.818 91.5405 280.475 92.9329 280.46 94.4505V99.1581C280.46 101.132 280.818 102.827 281.534 104.241C282.25 105.641 283.251 106.717 284.537 107.468C285.823 108.205 287.328 108.573 289.052 108.573C290.207 108.573 291.251 108.411 292.186 108.087C293.122 107.748 293.933 107.255 294.619 106.606C295.306 105.958 295.825 105.155 296.176 104.197L303.584 105.037C303.116 107.011 302.225 108.735 300.91 110.209C299.609 111.667 297.944 112.802 295.913 113.612C293.881 114.408 291.558 114.806 288.943 114.806Z" fill="#242424"/>
<path d="M325.31 114.806C321.95 114.806 319.064 114.062 316.653 112.574C314.256 111.085 312.408 109.03 311.107 106.407C309.822 103.77 309.179 100.735 309.179 97.3016C309.179 93.8538 309.836 90.8111 311.151 88.1737C312.466 85.5216 314.322 83.4588 316.718 81.9853C319.129 80.4972 321.979 79.7531 325.267 79.7531C327.999 79.7531 330.417 80.2614 332.522 81.2781C334.64 82.28 336.328 83.7019 337.585 85.5436C338.841 87.3707 339.557 89.5072 339.733 91.953H332.149C331.842 90.3175 331.111 88.9546 329.957 87.8643C328.817 86.7592 327.29 86.2067 325.376 86.2067C323.754 86.2067 322.33 86.6487 321.102 87.5328C319.875 88.4021 318.918 89.6545 318.231 91.29C317.559 92.9255 317.223 94.8852 317.223 97.169C317.223 99.4822 317.559 101.471 318.231 103.136C318.903 104.787 319.845 106.061 321.058 106.96C322.286 107.844 323.725 108.286 325.376 108.286C326.545 108.286 327.59 108.065 328.51 107.623C329.446 107.166 330.227 106.51 330.856 105.656C331.484 104.801 331.915 103.763 332.149 102.54H339.733C339.543 104.941 338.841 107.07 337.628 108.927C336.416 110.769 334.764 112.213 332.675 113.259C330.585 114.29 328.131 114.806 325.31 114.806Z" fill="#242424"/>
<path d="M355.936 114.828C353.802 114.828 351.881 114.445 350.171 113.679C348.476 112.898 347.132 111.748 346.138 110.231C345.159 108.713 344.67 106.842 344.67 104.617C344.67 102.702 345.02 101.118 345.722 99.8653C346.423 98.6129 347.38 97.611 348.593 96.8595C349.806 96.1081 351.172 95.5408 352.692 95.1577C354.226 94.7599 355.811 94.4726 357.448 94.2958C359.421 94.0895 361.021 93.9053 362.248 93.7433C363.476 93.5664 364.367 93.3012 364.922 92.9476C365.492 92.5792 365.777 92.012 365.777 91.2458V91.1132C365.777 89.4482 365.287 88.159 364.308 87.2455C363.329 86.3319 361.919 85.8752 360.078 85.8752C358.135 85.8752 356.593 86.3025 355.453 87.1571C354.328 88.0116 353.568 89.0209 353.174 90.1849L345.766 89.1241C346.35 87.0613 347.315 85.3374 348.659 83.9523C350.003 82.5526 351.647 81.5065 353.59 80.814C355.534 80.1067 357.682 79.7531 360.034 79.7531C361.656 79.7531 363.271 79.9446 364.878 80.3277C366.486 80.7108 367.954 81.3444 369.284 82.2284C370.614 83.0978 371.68 84.2839 372.484 85.7868C373.302 87.2897 373.711 89.1683 373.711 91.4226V114.143H366.084V109.479H365.821C365.339 110.422 364.659 111.306 363.782 112.132C362.92 112.942 361.832 113.598 360.517 114.099C359.216 114.585 357.689 114.828 355.936 114.828ZM357.996 108.949C359.589 108.949 360.97 108.632 362.139 107.999C363.307 107.35 364.206 106.496 364.834 105.435C365.477 104.374 365.799 103.217 365.799 101.965V97.9646C365.55 98.1709 365.127 98.3624 364.528 98.5392C363.943 98.7161 363.286 98.8708 362.555 99.0034C361.824 99.136 361.101 99.2539 360.385 99.357C359.669 99.4601 359.048 99.5485 358.522 99.6222C357.338 99.7843 356.279 100.05 355.344 100.418C354.409 100.786 353.671 101.302 353.13 101.965C352.589 102.613 352.319 103.453 352.319 104.485C352.319 105.958 352.853 107.07 353.919 107.822C354.986 108.573 356.345 108.949 357.996 108.949Z" fill="#242424"/>
</svg>
