<svg width="18" height="22" viewBox="0 0 18 22" fill="none" xmlns="http://www.w3.org/2000/svg">
<path d="M9.01595 16.9943C8.75675 16.9946 8.50758 16.8941 8.32095 16.714L1.90095 10.527C1.7502 10.3878 1.64583 10.2055 1.60201 10.005C1.55818 9.80439 1.57702 9.59518 1.65595 9.40569C1.72827 9.21501 1.85705 9.05099 2.02504 8.93559C2.19303 8.82019 2.39222 8.75891 2.59595 8.75995H4.39595C4.46802 8.75864 4.53668 8.72906 4.58718 8.67757C4.63768 8.62608 4.66596 8.5568 4.66595 8.48464V1.00114C4.6735 0.73801 4.78128 0.487735 4.96721 0.301598C5.15313 0.115462 5.40312 0.0075586 5.66595 4.8904e-08H12.336C12.4694 -4.17091e-05 12.6015 0.026659 12.7245 0.0785288C12.8475 0.130399 12.9589 0.206388 13.052 0.302019C13.1452 0.397651 13.2184 0.510989 13.2671 0.635357C13.3159 0.759724 13.3393 0.892604 13.336 1.02617V8.5347C13.3372 8.60731 13.3666 8.6766 13.4179 8.72795C13.4692 8.77931 13.5384 8.80873 13.611 8.81001H15.346C15.5327 8.80354 15.7179 8.84639 15.8829 8.93426C16.0479 9.02212 16.1869 9.15191 16.286 9.31058C16.3993 9.51035 16.4432 9.74218 16.4106 9.96962C16.378 10.1971 16.2709 10.4072 16.106 10.567L9.71095 16.719C9.52354 16.8973 9.27445 16.9959 9.01595 16.9943ZM4.26095 10.7322L8.82595 15.1322C8.87651 15.1823 8.94479 15.2105 9.01595 15.2105C9.08711 15.2105 9.15539 15.1823 9.20595 15.1322L13.766 10.7322C13.8069 10.695 13.8355 10.6462 13.8479 10.5922C13.8603 10.5383 13.8558 10.4818 13.835 10.4305C13.8143 10.3792 13.7784 10.3355 13.732 10.3053C13.6857 10.2751 13.6312 10.2599 13.576 10.2617H12.896C12.6327 10.2553 12.382 10.1478 12.1959 9.9614C12.0097 9.77501 11.9023 9.52404 11.896 9.26052V1.75199C11.8961 1.71363 11.8883 1.67566 11.8729 1.64051C11.8575 1.60537 11.835 1.57382 11.8068 1.5479C11.7785 1.52198 11.7452 1.50226 11.7089 1.48999C11.6726 1.47772 11.6341 1.47319 11.596 1.47668H6.43595C6.36342 1.47796 6.29421 1.50738 6.24292 1.55874C6.19162 1.61009 6.16224 1.67938 6.16095 1.75199V9.26052C6.16429 9.39408 6.14089 9.52697 6.09213 9.65133C6.04337 9.7757 5.97024 9.88904 5.87705 9.98467C5.78385 10.0803 5.67248 10.1563 5.5495 10.2082C5.42651 10.26 5.2944 10.2867 5.16095 10.2867H4.45595C4.40615 10.2904 4.3583 10.3077 4.31755 10.3366C4.27679 10.3655 4.24467 10.4049 4.22463 10.4507C4.20458 10.4965 4.19737 10.5469 4.20377 10.5965C4.21017 10.6461 4.22994 10.693 4.26095 10.7322Z" fill="#404040"/>
<path d="M17.25 22H0.75C0.551088 22 0.360322 21.9209 0.21967 21.7801C0.0790175 21.6393 0 21.4483 0 21.2491C0 21.05 0.0790175 20.859 0.21967 20.7182C0.360322 20.5774 0.551088 20.4983 0.75 20.4983H17.25C17.4489 20.4983 17.6397 20.5774 17.7803 20.7182C17.921 20.859 18 21.05 18 21.2491C18 21.4483 17.921 21.6393 17.7803 21.7801C17.6397 21.9209 17.4489 22 17.25 22Z" fill="#404040"/>
</svg>
