<svg width="54" height="54" viewBox="0 0 54 54" fill="none" xmlns="http://www.w3.org/2000/svg">
<circle cx="27" cy="27" r="25.5" fill="#242424" stroke="#242424" stroke-width="3"/>
<path d="M26.2363 33.1955C26.4383 33.391 26.7082 33.5003 26.9892 33.5003C27.2701 33.5003 27.5401 33.391 27.7421 33.1955L34.6971 26.4875C34.8566 26.3341 34.967 26.1368 35.0142 25.9205C35.0615 25.7042 35.0435 25.4788 34.9625 25.2727C34.8842 25.0662 34.7446 24.8885 34.5627 24.7635C34.3807 24.6385 34.1649 24.5721 33.9442 24.5732H31.7017V16.1678C31.7017 15.8802 31.5875 15.6043 31.3844 15.4009C31.1812 15.1975 30.9057 15.0833 30.6183 15.0833H23.3925C23.1032 15.0917 22.8284 15.2124 22.6263 15.4198C22.4242 15.6272 22.3104 15.9051 22.3092 16.1949V24.6003H20.0342C19.8135 24.5992 19.5977 24.6656 19.4157 24.7906C19.2337 24.9156 19.0942 25.0933 19.0158 25.2999C18.9303 25.5051 18.9099 25.7318 18.9574 25.9491C19.0049 26.1664 19.1179 26.3638 19.2813 26.5146L26.2363 33.1955Z" fill="#FCFCFC"/>
<path d="M35.9375 37.2897H18.0625C17.847 37.2897 17.6403 37.3754 17.488 37.528C17.3356 37.6805 17.25 37.8874 17.25 38.1031C17.25 38.3189 17.3356 38.5258 17.488 38.6783C17.6403 38.8309 17.847 38.9166 18.0625 38.9166H35.9375C36.153 38.9166 36.3597 38.8309 36.512 38.6783C36.6644 38.5258 36.75 38.3189 36.75 38.1031C36.75 37.8874 36.6644 37.6805 36.512 37.528C36.3597 37.3754 36.153 37.2897 35.9375 37.2897Z" fill="#FCFCFC"/>
</svg>
