<svg width="54" height="54" viewBox="0 0 54 54" fill="none" xmlns="http://www.w3.org/2000/svg">
<circle cx="27" cy="27" r="25.5" fill="#242424" stroke="#242424" stroke-width="3"/>
<path d="M26.2363 33.1929C26.4383 33.3885 26.7082 33.4978 26.9892 33.4978C27.2701 33.4978 27.5401 33.3885 27.7421 33.1929L34.6971 26.4818C34.8757 26.3086 34.9918 26.0809 35.0271 25.8344C35.0624 25.5878 35.0149 25.3366 34.8921 25.1201C34.7848 24.9481 34.6342 24.8074 34.4555 24.7122C34.2767 24.617 34.0761 24.5705 33.8738 24.5775H31.9942C31.9156 24.5761 31.8406 24.5443 31.785 24.4886C31.7295 24.4329 31.6976 24.3579 31.6963 24.2791V16.1683C31.6963 15.8805 31.5821 15.6045 31.379 15.4011C31.1758 15.1976 30.9002 15.0833 30.6129 15.0833H23.3925C23.1032 15.0917 22.8284 15.2124 22.6263 15.4199C22.4242 15.6275 22.3104 15.9055 22.3092 16.1954V24.3334C22.3092 24.4116 22.2785 24.4867 22.2238 24.5425C22.1691 24.5983 22.0947 24.6304 22.0167 24.6318H20.0667C19.846 24.6307 19.6302 24.6971 19.4482 24.8221C19.2662 24.9472 19.1267 25.125 19.0483 25.3317C18.9628 25.537 18.9424 25.7638 18.9899 25.9812C19.0374 26.1986 19.1504 26.3961 19.3138 26.5469L26.2363 33.1929Z" fill="#FCFCFC"/>
<path d="M35.9375 37.289H18.0625C17.847 37.289 17.6403 37.3747 17.488 37.5273C17.3356 37.68 17.25 37.887 17.25 38.1028C17.25 38.3186 17.3356 38.5256 17.488 38.6782C17.6403 38.8308 17.847 38.9166 18.0625 38.9166H35.9375C36.153 38.9166 36.3597 38.8308 36.512 38.6782C36.6644 38.5256 36.75 38.3186 36.75 38.1028C36.75 37.887 36.6644 37.68 36.512 37.5273C36.3597 37.3747 36.153 37.289 35.9375 37.289Z" fill="#FCFCFC"/>
</svg>
