<svg width="24" height="24" viewBox="0 0 24 24" fill="none" xmlns="http://www.w3.org/2000/svg">
<path d="M11.99 17.9943C11.7308 17.9946 11.4816 17.8941 11.295 17.714L4.875 11.527C4.72425 11.3878 4.61988 11.2055 4.57606 11.005C4.53223 10.8044 4.55106 10.5952 4.63 10.4057C4.70232 10.215 4.8311 10.051 4.99909 9.93559C5.16708 9.82019 5.36627 9.75891 5.57 9.75995H7.64V2.00114C7.64755 1.73801 7.75533 1.48773 7.94126 1.3016C8.12718 1.11546 8.37717 1.00756 8.64 1H15.31C15.4435 0.999958 15.5756 1.02666 15.6985 1.07853C15.8215 1.1304 15.9329 1.20639 16.0261 1.30202C16.1193 1.39765 16.1924 1.51099 16.2412 1.63536C16.2899 1.75972 16.3133 1.8926 16.31 2.02617V9.78498H18.38C18.5837 9.78394 18.7829 9.84521 18.9509 9.96062C19.1189 10.076 19.2477 10.24 19.32 10.4307C19.3947 10.6209 19.4114 10.829 19.3677 11.0286C19.3241 11.2283 19.2222 11.4104 19.075 11.552L12.685 17.719C12.4976 17.8973 12.2485 17.9959 11.99 17.9943ZM6.745 11.2617L11.99 16.3174L17.23 11.2617H15.87C15.6068 11.2553 15.3561 11.1478 15.1699 10.9614C14.9837 10.775 14.8763 10.524 14.87 10.2605L14.84 2.47668H9.14V10.2355C9.14334 10.3691 9.11994 10.5019 9.07118 10.6263C9.02242 10.7507 8.94929 10.864 8.85609 10.9596C8.7629 11.0553 8.65153 11.1313 8.52855 11.1831C8.40556 11.235 8.27345 11.2617 8.14 11.2617H6.745Z" fill="#404040"/>
<path d="M20.25 23H3.75C3.55109 23 3.36032 22.9209 3.21967 22.7801C3.07902 22.6392 3 22.4483 3 22.2491C3 22.05 3.07902 21.859 3.21967 21.7182C3.36032 21.5774 3.55109 21.4983 3.75 21.4983H20.25C20.4489 21.4983 20.6397 21.5774 20.7803 21.7182C20.921 21.859 21 22.05 21 22.2491C21 22.4483 20.921 22.6392 20.7803 22.7801C20.6397 22.9209 20.4489 23 20.25 23Z" fill="#404040"/>
</svg>
