<svg width="32" height="32" viewBox="0 0 32 32" fill="none" xmlns="http://www.w3.org/2000/svg">
<circle cx="16" cy="16" r="14.5" fill="#242424" stroke="#242424" stroke-width="3"/>
<g clip-path="url(#clip0_1_199)">
<path d="M15.5474 19.6699C15.6671 19.7858 15.8271 19.8506 15.9936 19.8506C16.1601 19.8506 16.3201 19.7858 16.4398 19.6699L20.5612 15.693C20.6671 15.5903 20.7359 15.4554 20.7568 15.3093C20.7777 15.1632 20.7496 15.0143 20.6768 14.886C20.6132 14.7841 20.524 14.7007 20.4181 14.6443C20.3121 14.5879 20.1932 14.5604 20.0733 14.5645H18.9595C18.9129 14.5637 18.8685 14.5448 18.8356 14.5118C18.8027 14.4788 18.7838 14.4343 18.783 14.3877V9.58127C18.783 9.41074 18.7153 9.24719 18.5949 9.1266C18.4745 9.00601 18.3113 8.93827 18.141 8.93827H13.8622C13.6908 8.94327 13.528 9.01481 13.4082 9.13779C13.2884 9.26076 13.221 9.42554 13.2203 9.59734V14.4198C13.2203 14.4662 13.2021 14.5107 13.1697 14.5437C13.1373 14.5768 13.0932 14.5958 13.0469 14.5967H11.8914C11.7606 14.596 11.6327 14.6353 11.5249 14.7095C11.417 14.7836 11.3343 14.8889 11.2879 15.0114C11.2372 15.1331 11.2251 15.2675 11.2533 15.3963C11.2814 15.5251 11.3484 15.6422 11.4452 15.7316L15.5474 19.6699Z" fill="#FCFCFC"/>
<path d="M21.2963 22.0972H10.7037C10.576 22.0972 10.4535 22.148 10.3633 22.2385C10.273 22.3289 10.2222 22.4516 10.2222 22.5795C10.2222 22.7074 10.273 22.83 10.3633 22.9205C10.4535 23.0109 10.576 23.0617 10.7037 23.0617H21.2963C21.424 23.0617 21.5465 23.0109 21.6368 22.9205C21.7271 22.83 21.7778 22.7074 21.7778 22.5795C21.7778 22.4516 21.7271 22.3289 21.6368 22.2385C21.5465 22.148 21.424 22.0972 21.2963 22.0972Z" fill="#FCFCFC"/>
</g>
<defs>
<clipPath id="clip0_1_199">
<rect width="15.4074" height="15.4074" fill="white" transform="translate(8.2963 8.2963)"/>
</clipPath>
</defs>
</svg>
