<svg width="262" height="30" viewBox="0 0 262 30" fill="none" xmlns="http://www.w3.org/2000/svg">
<path d="M15.1987 9.52472C15.1286 8.57415 14.7999 7.8327 14.2126 7.30038C13.6341 6.76806 12.7532 6.5019 11.5699 6.5019C10.8161 6.5019 10.1982 6.60171 9.71612 6.80133C9.2428 6.99145 8.8922 7.25285 8.6643 7.58555C8.43641 7.91825 8.31808 8.29848 8.30932 8.72624C8.29179 9.07795 8.34876 9.39639 8.48024 9.68156C8.62048 9.95723 8.83961 10.2091 9.13762 10.4373C9.43563 10.6559 9.81691 10.8555 10.2815 11.0361C10.746 11.2167 11.2982 11.3783 11.9381 11.5209L14.1469 12.0342C15.6369 12.3764 16.9123 12.8279 17.9728 13.3888C19.0334 13.9496 19.9012 14.6103 20.5761 15.3707C21.251 16.1217 21.7462 16.9677 22.0618 17.9087C22.3861 18.8498 22.5526 19.8764 22.5614 20.9886C22.5526 22.9087 22.11 24.5342 21.2335 25.865C20.357 27.1958 19.1035 28.2082 17.4732 28.9021C15.8517 29.596 13.9015 29.943 11.6225 29.943C9.28224 29.943 7.23997 29.5675 5.49572 28.8165C3.76023 28.0656 2.4104 26.9106 1.44624 25.3517C0.490846 23.7833 0.00876509 21.7776 0 19.3346H6.94196C6.98579 20.2281 7.19177 20.9791 7.5599 21.5875C7.92804 22.1958 8.44518 22.6568 9.11132 22.9705C9.78624 23.2842 10.5882 23.4411 11.5173 23.4411C12.2974 23.4411 12.9504 23.3365 13.4763 23.1274C14.0023 22.9183 14.4011 22.6283 14.6728 22.2576C14.9445 21.8869 15.0847 21.4639 15.0935 20.9886C15.0847 20.5418 14.9489 20.1521 14.6859 19.8194C14.4317 19.4772 14.011 19.173 13.4238 18.9068C12.8365 18.6312 12.0433 18.3745 11.044 18.1369L8.36191 17.5095C5.9778 16.9487 4.09769 16.0124 2.72156 14.7006C1.35421 13.3793 0.674913 11.5779 0.683678 9.29658C0.674913 7.44297 1.1307 5.82224 2.05103 4.43441C2.98013 3.03707 4.26422 1.94867 5.9033 1.1692C7.55114 0.389734 9.44002 0 11.5699 0C13.7437 0 15.6238 0.394487 17.2103 1.18346C18.7968 1.97243 20.0195 3.0846 20.8785 4.51996C21.7462 5.94582 22.1845 7.61407 22.1932 9.52472H15.1987Z" fill="#242424"/>
<path d="M26.8231 29.6008V0.39924H38.4456C40.444 0.39924 42.1927 0.826997 43.6915 1.68251C45.1903 2.53802 46.3561 3.74049 47.1888 5.28993C48.0215 6.83935 48.4378 8.65019 48.4378 10.7224C48.4378 12.8137 48.0083 14.6245 47.1493 16.1549C46.2991 17.6854 45.1027 18.8641 43.56 19.6911C42.0261 20.5181 40.2337 20.9316 38.1826 20.9316H31.2407V14.7719H36.7101C37.5691 14.7719 38.301 14.6103 38.9057 14.2871C39.5193 13.9544 39.9882 13.4838 40.3125 12.8755C40.6456 12.2671 40.8122 11.5494 40.8122 10.7224C40.8122 9.88593 40.6456 9.173 40.3125 8.58365C39.9882 7.98479 39.5193 7.52852 38.9057 7.21483C38.301 6.89163 37.5691 6.73004 36.7101 6.73004H34.1332V29.6008H26.8231Z" fill="#242424"/>
<path d="M52.6009 29.6008V0.39924H64.2234C66.2218 0.39924 67.9705 0.793727 69.4693 1.5827C70.9681 2.37167 72.1339 3.50761 72.9666 4.9905C73.7993 6.47338 74.2156 8.25095 74.2156 10.3232C74.2156 12.4144 73.7861 14.1778 72.9271 15.6131C72.0769 17.0485 70.8805 18.1321 69.3378 18.8641C67.8039 19.596 66.0115 19.962 63.9604 19.962H57.0185V13.8023H62.4879C63.3469 13.8023 64.0788 13.6882 64.6836 13.4601C65.2971 13.2224 65.7661 12.847 66.0904 12.3337C66.4234 11.8203 66.59 11.1502 66.59 10.3232C66.59 9.48669 66.4234 8.80704 66.0904 8.28422C65.7661 7.7519 65.2971 7.36217 64.6836 7.11502C64.0788 6.85837 63.3469 6.73004 62.4879 6.73004H59.911V29.6008H52.6009ZM68.3781 16.1977L75.1097 29.6008H67.1685L60.5946 16.1977H68.3781Z" fill="#242424"/>
<path d="M86.1227 0.39924V29.6008H78.8126V0.39924H86.1227Z" fill="#242424"/>
<path d="M114.366 0.39924V29.6008H108.265L98.5359 14.2586H98.3781V29.6008H91.068V0.39924H97.2737L106.845 15.6844H107.056V0.39924H114.366Z" fill="#242424"/>
<path d="M136.791 10.038C136.677 9.53422 136.497 9.09221 136.252 8.71198C136.006 8.32224 135.7 7.9943 135.331 7.72814C134.972 7.45247 134.551 7.2481 134.069 7.11502C133.596 6.97243 133.074 6.90114 132.505 6.90114C131.278 6.90114 130.23 7.21958 129.362 7.85646C128.503 8.49335 127.846 9.41065 127.39 10.6084C126.943 11.8061 126.72 13.251 126.72 14.943C126.72 16.654 126.934 18.1179 127.364 19.3346C127.793 20.5513 128.433 21.4829 129.284 22.1293C130.134 22.7757 131.19 23.0989 132.452 23.0989C133.565 23.0989 134.49 22.923 135.226 22.5713C135.971 22.2196 136.528 21.7205 136.896 21.0741C137.264 20.4278 137.448 19.6673 137.448 18.7928L138.71 18.9354H132.557V13.289H144.495V17.3384C144.495 20 143.974 22.2766 142.931 24.1683C141.896 26.0504 140.468 27.4953 138.645 28.5029C136.83 29.501 134.749 30 132.4 30C129.779 30 127.478 29.3964 125.497 28.1892C123.516 26.9819 121.969 25.2614 120.856 23.0276C119.751 20.7937 119.199 18.1369 119.199 15.057C119.199 12.6426 119.537 10.5038 120.212 8.64069C120.895 6.77757 121.842 5.20437 123.052 3.9211C124.261 2.62833 125.659 1.65399 127.246 0.998098C128.832 0.332699 130.533 0 132.347 0C133.942 0 135.423 0.247149 136.791 0.741446C138.167 1.22624 139.381 1.92015 140.433 2.82319C141.493 3.71673 142.348 4.77662 142.997 6.00285C143.645 7.22909 144.04 8.57415 144.18 10.038H136.791Z" fill="#242424"/>
<path d="M149.385 29.6008V0.39924H161.06C163.111 0.39924 164.833 0.69867 166.227 1.29753C167.629 1.89639 168.686 2.7424 169.396 3.83555C170.114 4.92871 170.474 6.21673 170.474 7.69962C170.474 8.77376 170.255 9.75285 169.816 10.6369C169.387 11.5209 168.782 12.2624 168.002 12.8612C167.222 13.4506 166.31 13.8593 165.267 14.0875V14.3726C166.424 14.4202 167.476 14.7386 168.423 15.3279C169.369 15.9078 170.123 16.711 170.684 17.7376C171.245 18.7548 171.525 19.9525 171.525 21.3308C171.525 22.9278 171.14 24.3489 170.368 25.5941C169.606 26.8394 168.519 27.8184 167.108 28.5314C165.697 29.2443 164.014 29.6008 162.059 29.6008H149.385ZM156.695 23.27H160.113C161.34 23.27 162.261 23.0228 162.874 22.5285C163.488 22.0247 163.795 21.2833 163.795 20.3042C163.795 19.6198 163.65 19.0399 163.361 18.5646C163.072 18.0894 162.66 17.7281 162.125 17.481C161.599 17.2338 160.964 17.1103 160.218 17.1103H156.695V23.27ZM156.695 12.2053H159.693C160.332 12.2053 160.898 12.096 161.389 11.8774C161.879 11.6587 162.261 11.3451 162.532 10.9363C162.813 10.5181 162.953 10.0095 162.953 9.41065C162.953 8.5076 162.655 7.81844 162.059 7.34316C161.463 6.85837 160.709 6.61597 159.798 6.61597H156.695V12.2053Z" fill="#242424"/>
<path d="M201.681 15C201.681 18.251 201.099 20.9933 199.933 23.2272C198.767 25.4515 197.194 27.1388 195.213 28.289C193.232 29.4297 191.023 30 188.586 30C186.132 30 183.915 29.4249 181.934 28.2747C179.962 27.115 178.393 25.423 177.227 23.1987C176.07 20.9648 175.491 18.2319 175.491 15C175.491 11.7491 176.07 9.01141 177.227 6.78707C178.393 4.55323 179.962 2.86597 181.934 1.72529C183.915 0.575095 186.132 0 188.586 0C191.023 0 193.232 0.575095 195.213 1.72529C197.194 2.86597 198.767 4.55323 199.933 6.78707C201.099 9.01141 201.681 11.7491 201.681 15ZM194.161 15C194.161 13.251 193.946 11.7776 193.517 10.5798C193.096 9.37262 192.469 8.46008 191.637 7.84221C190.813 7.21483 189.796 6.90114 188.586 6.90114C187.377 6.90114 186.356 7.21483 185.523 7.84221C184.699 8.46008 184.072 9.37262 183.643 10.5798C183.222 11.7776 183.012 13.251 183.012 15C183.012 16.7491 183.222 18.2272 183.643 19.4344C184.072 20.6321 184.699 21.5447 185.523 22.1721C186.356 22.7899 187.377 23.0989 188.586 23.0989C189.796 23.0989 190.813 22.7899 191.637 22.1721C192.469 21.5447 193.096 20.6321 193.517 19.4344C193.946 18.2272 194.161 16.7491 194.161 15Z" fill="#242424"/>
<path d="M232.63 15C232.63 18.251 232.047 20.9933 230.881 23.2272C229.715 25.4515 228.142 27.1388 226.161 28.289C224.18 29.4297 221.971 30 219.535 30C217.08 30 214.863 29.4249 212.882 28.2747C210.91 27.115 209.341 25.423 208.175 23.1987C207.018 20.9648 206.439 18.2319 206.439 15C206.439 11.7491 207.018 9.01141 208.175 6.78707C209.341 4.55323 210.91 2.86597 212.882 1.72529C214.863 0.575095 217.08 0 219.535 0C221.971 0 224.18 0.575095 226.161 1.72529C228.142 2.86597 229.715 4.55323 230.881 6.78707C232.047 9.01141 232.63 11.7491 232.63 15ZM225.109 15C225.109 13.251 224.894 11.7776 224.465 10.5798C224.044 9.37262 223.417 8.46008 222.585 7.84221C221.761 7.21483 220.744 6.90114 219.535 6.90114C218.325 6.90114 217.304 7.21483 216.471 7.84221C215.647 8.46008 215.021 9.37262 214.591 10.5798C214.17 11.7776 213.96 13.251 213.96 15C213.96 16.7491 214.17 18.2272 214.591 19.4344C215.021 20.6321 215.647 21.5447 216.471 22.1721C217.304 22.7899 218.325 23.0989 219.535 23.0989C220.744 23.0989 221.761 22.7899 222.585 22.1721C223.417 21.5447 224.044 20.6321 224.465 19.4344C224.894 18.2272 225.109 16.7491 225.109 15Z" fill="#242424"/>
<path d="M237.493 29.6008V0.39924H244.803V12.2053H245.171L253.27 0.39924H261.79L252.691 13.403L262 29.6008H253.27L247.222 18.6502L244.803 22.0722V29.6008H237.493Z" fill="#242424"/>
</svg>
