<svg width="22" height="18" viewBox="0 0 22 18" fill="none" xmlns="http://www.w3.org/2000/svg">
<path d="M21.035 0H0.965C0.705897 0.00907413 0.460445 0.118424 0.280413 0.304986C0.10038 0.491547 -0.000158657 0.740738 1.87937e-07 1V17C-0.000158657 17.2593 0.10038 17.5085 0.280413 17.695C0.460445 17.8816 0.705897 17.9909 0.965 18H21.035C21.2941 17.9909 21.5396 17.8816 21.7196 17.695C21.8996 17.5085 22.0002 17.2593 22 17V1C22.0002 0.740738 21.8996 0.491547 21.7196 0.304986C21.5396 0.118424 21.2941 0.00907413 21.035 0ZM20.59 1.5V1.585L11.16 8.47C11.1136 8.50411 11.0576 8.52251 11 8.52251C10.9424 8.52251 10.8864 8.50411 10.84 8.47L1.41 1.575V1.5H20.59ZM1.41 16.235V3.925C1.41067 3.87477 1.42508 3.82568 1.45168 3.78306C1.47827 3.74044 1.51604 3.70592 1.56087 3.68324C1.6057 3.66057 1.65588 3.65061 1.70597 3.65445C1.75606 3.65828 1.80414 3.67577 1.845 3.705L10.45 10C10.6113 10.1128 10.8032 10.1738 11 10.175C11.1971 10.1758 11.3896 10.1146 11.55 10L20.155 3.705C20.1954 3.67381 20.2437 3.6547 20.2945 3.64987C20.3453 3.64504 20.3964 3.6547 20.4419 3.67772C20.4874 3.70074 20.5255 3.73619 20.5517 3.77995C20.5779 3.82371 20.5912 3.874 20.59 3.925V16.235C20.59 16.3079 20.561 16.3779 20.5095 16.4295C20.4579 16.481 20.3879 16.51 20.315 16.51H1.685C1.61207 16.51 1.54212 16.481 1.49055 16.4295C1.43897 16.3779 1.41 16.3079 1.41 16.235Z" fill="#FCFCFC"/>
</svg>
