<svg width="54" height="54" viewBox="0 0 54 54" fill="none" xmlns="http://www.w3.org/2000/svg">
<circle cx="27" cy="27" r="25.5" stroke="#404040" stroke-width="3"/>
<path d="M13 32V22H17.4762C18.2875 22 18.9877 22.1465 19.5767 22.4395C20.1693 22.7292 20.6261 23.1344 20.9471 23.6553C21.2681 24.1729 21.4286 24.7751 21.4286 25.4619C21.4286 26.152 21.2646 26.7559 20.9365 27.2734C20.612 27.7878 20.1481 28.1865 19.545 28.4697C18.9418 28.7529 18.2257 28.8945 17.3968 28.8945H14.6349V26.9902H16.9101C17.3051 26.9902 17.6349 26.9268 17.8995 26.7998C18.1675 26.6729 18.3704 26.4954 18.5079 26.2676C18.6455 26.0365 18.7143 25.7679 18.7143 25.4619C18.7143 25.1527 18.6455 24.8857 18.5079 24.6611C18.3704 24.4333 18.1675 24.2575 17.8995 24.1338C17.6314 24.0101 17.3016 23.9482 16.9101 23.9482H15.619V32H13Z" fill="#404040"/>
<path d="M26.7249 32H22.7196V22H26.7196C27.8236 22 28.7743 22.2002 29.5714 22.6006C30.3721 22.9977 30.9894 23.5706 31.4233 24.3193C31.8571 25.0648 32.0741 25.9567 32.0741 26.9951C32.0741 28.0368 31.8571 28.932 31.4233 29.6807C30.9929 30.4294 30.3774 31.0039 29.5767 31.4043C28.776 31.8014 27.8254 32 26.7249 32ZM25.3386 29.9395H26.6243C27.231 29.9395 27.7443 29.8451 28.164 29.6563C28.5873 29.4642 28.9065 29.1533 29.1217 28.7236C29.3404 28.2907 29.4497 27.7145 29.4497 26.9951C29.4497 26.2757 29.3404 25.7028 29.1217 25.2764C28.903 24.8467 28.5802 24.5374 28.1534 24.3486C27.7302 24.1566 27.2081 24.0605 26.5873 24.0605H25.3386V29.9395Z" fill="#404040"/>
<path d="M33.6032 32V22H41V23.9629H36.2222V26.0137H40.5291V27.9814H36.2222V32H33.6032Z" fill="#404040"/>
</svg>
